<svg xmlns="http://www.w3.org/2000/svg" viewBox="140 40 250 55"><defs><style>.cls-10{fill:#fff;}</style></defs><g id="Layer_2" data-name="Layer 2"><g id="Layer_1-2" data-name="Layer 1"><path class="cls-10" d="M171.1,68.9a20.63,20.63,0,0,1-1.33,7.74A14.82,14.82,0,0,1,166,82.16a15.52,15.52,0,0,1-5.8,3.32,24.24,24.24,0,0,1-7.55,1.1c-.62,0-1.33,0-2.12,0s-1.61-.1-2.43-.19-1.67-.23-2.52-.39a15.25,15.25,0,0,1-2.32-.64,3.8,3.8,0,0,1-2.87-3.76V55.25a2.35,2.35,0,0,1,.58-1.71,4.1,4.1,0,0,1,1.68-1,22.28,22.28,0,0,1,4.81-.94c1.69-.15,3.24-.22,4.64-.22a26.73,26.73,0,0,1,7.74,1,16,16,0,0,1,6,3.23,14.89,14.89,0,0,1,3.87,5.47A20,20,0,0,1,171.1,68.9Zm-9,.11c0-3.57-.87-6.24-2.62-8a9.24,9.24,0,0,0-6.83-2.62c-.66,0-1.29,0-1.87.05a13.4,13.4,0,0,0-1.77.23V79.23a11.67,11.67,0,0,0,1.74.25c.68.06,1.33.09,2,.09a9.09,9.09,0,0,0,6.85-2.63C161.3,75.19,162.14,72.55,162.14,69Z"/><path class="cls-10" d="M183.48,76a5.31,5.31,0,0,0,2.71,3.29,9.77,9.77,0,0,0,4.47,1,15.62,15.62,0,0,0,7.68-2,4.67,4.67,0,0,1,1.39,1.44,3.66,3.66,0,0,1,.55,1.93,3.38,3.38,0,0,1-.78,2.22,6,6,0,0,1-2.12,1.57,12.29,12.29,0,0,1-3.21.94,25.44,25.44,0,0,1-4.06.3,19.11,19.11,0,0,1-6-.91A13.17,13.17,0,0,1,179.33,83a12.31,12.31,0,0,1-3.12-4.5,16.28,16.28,0,0,1-1.13-6.36A15.18,15.18,0,0,1,176.21,66a12,12,0,0,1,7.41-6.83,16.26,16.26,0,0,1,5-.8,15,15,0,0,1,5.17.86,11.84,11.84,0,0,1,4,2.4,10.9,10.9,0,0,1,2.63,3.71,11.52,11.52,0,0,1,.94,4.69,3.48,3.48,0,0,1-.94,2.66,5,5,0,0,1-2.65,1.16Zm5.25-11.38a5.59,5.59,0,0,0-3.95,1.46,6.46,6.46,0,0,0-1.86,4.23l10.56-1.71a4.39,4.39,0,0,0-4.75-4Z"/><path class="cls-10" d="M214.48,61.11h9.4c.18.37.37.83.58,1.38a5.3,5.3,0,0,1,.3,1.82,3.42,3.42,0,0,1-.8,2.54,2.85,2.85,0,0,1-2.07.78h-7V85.7a10.93,10.93,0,0,1-1.55.3,16.44,16.44,0,0,1-2.21.14,6.24,6.24,0,0,1-3.59-.8q-1.11-.8-1.11-3.12V58.73a11.36,11.36,0,0,1,.91-4.7,8.55,8.55,0,0,1,2.52-3.23A10.75,10.75,0,0,1,213.6,49a16.79,16.79,0,0,1,4.64-.61,12.84,12.84,0,0,1,5.83,1A3.53,3.53,0,0,1,226,52.71a3.94,3.94,0,0,1-.42,1.85,3.78,3.78,0,0,1-1,1.24,20.38,20.38,0,0,0-2.24-.55,14.6,14.6,0,0,0-2.68-.22,6.79,6.79,0,0,0-3.87.91A3.45,3.45,0,0,0,214.48,59Zm14.92-9.56a4.43,4.43,0,0,1,1.3-3.21,5,5,0,0,1,6.8,0,4.43,4.43,0,0,1,1.3,3.21,4.51,4.51,0,0,1-1.3,3.26,5,5,0,0,1-6.8,0A4.51,4.51,0,0,1,229.4,51.55Zm8.9,34.15a10.65,10.65,0,0,1-1.55.3,16.44,16.44,0,0,1-2.21.14,6.13,6.13,0,0,1-3.56-.8q-1.08-.8-1.08-3.12V59.5a13.15,13.15,0,0,1,1.55-.33,13.57,13.57,0,0,1,2.21-.16,5.85,5.85,0,0,1,3.56.83q1.08.82,1.08,3.15Z"/><path class="cls-10" d="M246.78,84.62a4.55,4.55,0,0,1-1.24-3.34V52.15l1.74-.27a15.57,15.57,0,0,1,2.24-.17,6.09,6.09,0,0,1,3.59.83c.74.55,1.11,1.64,1.11,3.26v23h13.26a8.21,8.21,0,0,1,.64,1.43,6,6,0,0,1,.3,1.94,4,4,0,0,1-.8,2.73,2.75,2.75,0,0,1-2.18.92H250.13A4.54,4.54,0,0,1,246.78,84.62Z"/><path class="cls-10" d="M278,86.14a6.09,6.09,0,0,1-3.56-.8q-1.08-.8-1.08-3.12V49.78a13.2,13.2,0,0,1,1.57-.33,14.07,14.07,0,0,1,2.24-.17,6,6,0,0,1,3.54.83c.74.55,1.1,1.6,1.1,3.15V85.7a12.91,12.91,0,0,1-1.6.3A16.44,16.44,0,0,1,278,86.14Z"/><path class="cls-10" d="M299,58.34a22.18,22.18,0,0,1,5.22.58,11.44,11.44,0,0,1,4,1.8,8.31,8.31,0,0,1,2.57,3.09,10.18,10.18,0,0,1,.91,4.43V80.73A3.36,3.36,0,0,1,311,83a7.11,7.11,0,0,1-1.79,1.46,13.89,13.89,0,0,1-4.2,1.61,26.69,26.69,0,0,1-5.64.55q-5.7,0-9.07-2.18a7.41,7.41,0,0,1-3.37-6.66A7.34,7.34,0,0,1,289.2,72q2.26-2,7-2.48l7.35-.78v-.6a2.8,2.8,0,0,0-1.43-2.6,8.34,8.34,0,0,0-4.15-.83,16.78,16.78,0,0,0-4.12.5,24.48,24.48,0,0,0-3.62,1.16A3.54,3.54,0,0,1,289.06,65a4.26,4.26,0,0,1-.47-2,3.6,3.6,0,0,1,2.54-3.48,17.12,17.12,0,0,1,3.73-.91A30,30,0,0,1,299,58.34Zm.33,22a12.06,12.06,0,0,0,2.4-.24,5.68,5.68,0,0,0,1.8-.64V74.43l-4.53.38a6.93,6.93,0,0,0-2.85.8,2.08,2.08,0,0,0-1.08,1.91,2.52,2.52,0,0,0,1,2.1A5.34,5.34,0,0,0,299.37,80.39Z"/><path class="cls-10" d="M358.11,85.7a12.55,12.55,0,0,1-1.6.3,16.44,16.44,0,0,1-2.21.14,6.11,6.11,0,0,1-3.56-.8q-1.08-.8-1.08-3.12V68.51a3.34,3.34,0,0,0-1-2.68A4,4,0,0,0,346,65a5.54,5.54,0,0,0-2.08.39,7.11,7.11,0,0,0-1.74,1,5.25,5.25,0,0,1,.09.55c0,.18,0,.37,0,.55V85.7a12.91,12.91,0,0,1-1.6.3,16.44,16.44,0,0,1-2.21.14,6.09,6.09,0,0,1-3.56-.8q-1.08-.8-1.08-3.12V68.51a3.18,3.18,0,0,0-1.11-2.68A4.29,4.29,0,0,0,330,65a5.86,5.86,0,0,0-2.1.36,11.56,11.56,0,0,0-1.54.7V85.7a10.93,10.93,0,0,1-1.55.3,16.44,16.44,0,0,1-2.21.14,6.24,6.24,0,0,1-3.59-.8q-1.11-.8-1.11-3.12V65.14a4,4,0,0,1,.61-2.32,6.79,6.79,0,0,1,1.71-1.66,15,15,0,0,1,4.51-2,19.91,19.91,0,0,1,5.61-.78,15,15,0,0,1,4.39.64,11.9,11.9,0,0,1,3.79,2,16.8,16.8,0,0,1,3.75-1.85,14.83,14.83,0,0,1,5-.75,15.93,15.93,0,0,1,4.12.53,9.47,9.47,0,0,1,3.45,1.71,8.61,8.61,0,0,1,2.4,3.1,10.59,10.59,0,0,1,.91,4.61Z"/><path class="cls-10" d="M375.08,58.34a22.06,22.06,0,0,1,5.22.58,11.36,11.36,0,0,1,4,1.8,8.21,8.21,0,0,1,2.57,3.09,10,10,0,0,1,.91,4.43V80.73a3.41,3.41,0,0,1-.74,2.29,7,7,0,0,1-1.8,1.46,13.69,13.69,0,0,1-4.2,1.61,26.69,26.69,0,0,1-5.64.55q-5.69,0-9.06-2.18A7.39,7.39,0,0,1,363,77.8,7.33,7.33,0,0,1,365.24,72q2.26-2,7-2.48l7.35-.78v-.6a2.79,2.79,0,0,0-1.44-2.6A8.33,8.33,0,0,0,374,64.7a16.66,16.66,0,0,0-4.12.5,24.1,24.1,0,0,0-3.62,1.16A3.64,3.64,0,0,1,365.1,65a4.25,4.25,0,0,1-.46-2,3.58,3.58,0,0,1,2.54-3.48,17.12,17.12,0,0,1,3.73-.91A29.92,29.92,0,0,1,375.08,58.34Zm.33,22a12.23,12.23,0,0,0,2.41-.24,5.52,5.52,0,0,0,1.79-.64V74.43l-4.53.38a6.93,6.93,0,0,0-2.85.8,2.09,2.09,0,0,0-1.07,1.91,2.53,2.53,0,0,0,1,2.1A5.34,5.34,0,0,0,375.41,80.39Z"/></g></g></svg>

